{
  "accessors": [
    {
      "bufferView": 1,
      "componentType": 5126,
      "count": 21218,
      "max": [
        5.7253899574279785,
        37.999191284179688,
        5.7253899574279785
      ],
      "min": [
        -5.7253899574279785,
        0.00016999999934341758,
        -5.7253899574279785
      ],
      "type": "VEC3"
    },
    {
      "bufferView": 1,
      "byteOffset": 254616,
      "componentType": 5126,
      "count": 21218,
      "max": [
        1,
        1,
        1
      ],
      "min": [
        -1,
        -1,
        -1
      ],
      "type": "VEC3"
    },
    {
      "bufferView": 0,
      "componentType": 5125,
      "count": 125568,
      "max": [
        21217
      ],
      "min": [
        0
      ],
      "type": "SCALAR"
    },
    {
      "bufferView": 1,
      "byteOffset": 509232,
      "componentType": 5126,
      "count": 2208,
      "max": [
        5.7143001556396484,
        27.232410430908203,
        5.7143001556396484
      ],
      "min": [
        -5.7143001556396484,
        14.429900169372559,
        -5.7143001556396484
      ],
      "type": "VEC3"
    },
    {
      "bufferView": 1,
      "byteOffset": 535728,
      "componentType": 5126,
      "count": 2208,
      "max": [
        0.99986571073532104,
        0.17606586217880249,
        0.99986571073532104
      ],
      "min": [
        -0.99986571073532104,
        0.016390109434723854,
        -0.99986571073532104
      ],
      "type": "VEC3"
    },
    {
      "bufferView": 0,
      "byteOffset": 502272,
      "componentType": 5125,
      "count": 11520,
      "max": [
        2207
      ],
      "min": [
        0
      ],
      "type": "SCALAR"
    }
  ],
  "asset": {
    "extras": {
      "author": "borkia (https://sketchfab.com/borkia)",
      "license": "CC-BY-4.0 (http://creativecommons.org/licenses/by/4.0/)",
      "source": "https://sketchfab.com/3d-models/bowling-pin-6f4789c7c0f74c55adfedc57c73dba60",
      "title": "Bowling pin"
    },
    "generator": "Sketchfab-6.43.0",
    "version": "2.0"
  },
  "bufferViews": [
    {
      "buffer": 0,
      "byteLength": 548352,
      "byteOffset": 0,
      "name": "floatBufferViews",
      "target": 34963
    },
    {
      "buffer": 0,
      "byteLength": 562224,
      "byteOffset": 548352,
      "byteStride": 12,
      "name": "floatBufferViews",
      "target": 34962
    }
  ],
  "buffers": [
    {
      "byteLength": 1110576,
      "uri": "scene.bin"
    }
  ],
  "materials": [
    {
      "doubleSided": true,
      "name": "Glossy_white_pin",
      "pbrMetallicRoughness": {
        "baseColorFactor": [
          0.31861728343029622,
          0,
          0,
          1
        ],
        "metallicFactor": 0,
        "roughnessFactor": 0.59999999999999998
      }
    },
    {
      "doubleSided": true,
      "name": "Red_pin_stripe",
      "pbrMetallicRoughness": {
        "baseColorFactor": [
          1,
          1,
          1,
          1
        ],
        "metallicFactor": 0,
        "roughnessFactor": 0.59999999999999998
      }
    }
  ],
  "meshes": [
    {
      "name": "Pin_0",
      "primitives": [
        {
          "attributes": {
            "NORMAL": 1,
            "POSITION": 0
          },
          "indices": 2,
          "material": 0,
          "mode": 4
        }
      ]
    },
    {
      "name": "Pin_1",
      "primitives": [
        {
          "attributes": {
            "NORMAL": 4,
            "POSITION": 3
          },
          "indices": 5,
          "material": 1,
          "mode": 4
        }
      ]
    }
  ],
  "nodes": [
    {
      "children": [
        1
      ],
      "name": "RootNode (gltf orientation matrix)",
      "rotation": [
        -0.70710678118654746,
        -0,
        -0,
        0.70710678118654757
      ]
    },
    {
      "children": [
        2
      ],
      "matrix": [
        1,
        0,
        0,
        0,
        0,
        1,
        1.6081226229577292e-16,
        0,
        0,
        -1.6081226229577292e-16,
        1,
        0,
        0,
        3.0553706605236132e-15,
        0,
        1
      ],
      "name": "RootNode (model correction matrix)"
    },
    {
      "children": [
        3,
        5
      ],
      "name": "Root"
    },
    {
      "children": [
        4
      ],
      "matrix": [
        -0.43529000000000001,
        1.4294399999999998,
        -0.082590000000000025,
        0,
        -1.15398,
        -0.29913000000000001,
        0.90469000000000011,
        0,
        0.84763000000000011,
        0.32683000000000006,
        1.1892500000000001,
        0,
        4.8530199999999999,
        2.4835500000000001,
        7.5542799999999994,
        1
      ],
      "name": "Lamp"
    },
    {
      "name": "Lamp"
    },
    {
      "children": [
        6,
        7
      ],
      "matrix": [
        1,
        0,
        0,
        0,
        0,
        -0,
        1,
        0,
        0,
        -1,
        -0,
        0,
        0,
        0,
        0,
        1
      ],
      "name": "Pin"
    },
    {
      "mesh": 0,
      "name": "Pin_0"
    },
    {
      "mesh": 1,
      "name": "Pin_1"
    }
  ],
  "scene": 0,
  "scenes": [
    {
      "name": "OSG_Scene",
      "nodes": [
        0
      ]
    }
  ]
}

